<svg xmlns="http://www.w3.org/2000/svg" xmlns:xlink="http://www.w3.org/1999/xlink" width="2000" zoomAndPan="magnify" viewBox="0 0 1500 1499.999933" height="2000" preserveAspectRatio="xMidYMid meet" version="1.0"><defs><clipPath id="81e2099081"><path d="M 280 459 L 784 459 L 784 907 L 280 907 Z M 280 459 " clip-rule="nonzero"/></clipPath><clipPath id="b90a4b003d"><path d="M 201.464844 622.488281 L 663.019531 372.28125 L 863.8125 742.679688 L 402.257812 992.890625 Z M 201.464844 622.488281 " clip-rule="nonzero"/></clipPath><clipPath id="62223d7dfc"><path d="M 431.894531 497.574219 C 304.632812 566.5625 246.414062 705.40625 301.863281 807.6875 C 357.308594 909.972656 505.425781 936.960938 632.6875 867.972656 C 759.949219 798.984375 818.167969 660.140625 762.71875 557.859375 C 707.273438 455.574219 559.15625 428.582031 431.894531 497.574219 Z M 431.894531 497.574219 " clip-rule="nonzero"/></clipPath><clipPath id="d9526d7b85"><path d="M 0 0 L 504 0 L 504 448 L 0 448 Z M 0 0 " clip-rule="nonzero"/></clipPath><clipPath id="b5ff94dd63"><path d="M -78.535156 163.488281 L 383.019531 -86.71875 L 583.8125 283.679688 L 122.257812 533.890625 Z M -78.535156 163.488281 " clip-rule="nonzero"/></clipPath><clipPath id="6f4c11c212"><path d="M 151.894531 38.574219 C 24.632812 107.5625 -33.585938 246.40625 21.863281 348.6875 C 77.308594 450.972656 225.425781 477.960938 352.6875 408.972656 C 479.949219 339.984375 538.167969 201.140625 482.71875 98.859375 C 427.273438 -3.425781 279.15625 -30.417969 151.894531 38.574219 Z M 151.894531 38.574219 " clip-rule="nonzero"/></clipPath><clipPath id="077e5077b4"><rect x="0" width="504" y="0" height="448"/></clipPath><clipPath id="94161fdce7"><path d="M 75 294.046875 L 1424.980469 294.046875 L 1424.980469 1415.890625 L 75 1415.890625 Z M 75 294.046875 " clip-rule="nonzero"/></clipPath></defs><rect x="-150" width="1800" fill="#ffffff" y="-149.999993" height="1799.99992" fill-opacity="1"/><rect x="-150" width="1800" fill="#4a3aff" y="-149.999993" height="1799.99992" fill-opacity="1"/><g clip-path="url(#81e2099081)"><g clip-path="url(#b90a4b003d)"><g clip-path="url(#62223d7dfc)"><g transform="matrix(1, 0, 0, 1, 280, 459)"><g clip-path="url(#077e5077b4)"><g clip-path="url(#d9526d7b85)"><g clip-path="url(#b5ff94dd63)"><g clip-path="url(#6f4c11c212)"><path fill="#f59e0b" d="M -78.535156 163.488281 L 383.019531 -86.71875 L 583.8125 283.679688 L 122.257812 533.890625 Z M -78.535156 163.488281 " fill-opacity="1" fill-rule="nonzero"/></g></g></g></g></g></g></g></g><g clip-path="url(#94161fdce7)"><path fill="#ffffff" d="M 1184.84375 729.761719 C 1164.660156 760.074219 1145.484375 778.359375 1112.828125 798.433594 C 1080.085938 818.558594 1048.742188 828.578125 1010.347656 831.167969 L 1010.355469 831.167969 C 978.023438 833.359375 935.679688 825.472656 907.34375 811.980469 C 841.820312 780.777344 799.488281 711.523438 802.777344 640.910156 C 803.988281 615 818.683594 565.605469 830.792969 546.730469 C 866.109375 491.707031 914.6875 458.109375 976.277344 446.117188 C 1009.535156 439.640625 1027.308594 439.277344 1058.847656 444.421875 C 1127.664062 455.671875 1193.054688 513.433594 1208.578125 576.671875 C 1217.992188 615.046875 1217.875 631.003906 1207.804688 671.816406 C 1199.824219 704.222656 1196.863281 711.699219 1184.84375 729.761719 Z M 801.34375 1097.507812 C 775.582031 1103.421875 722.199219 1108.175781 700.53125 1106.503906 L 700.535156 1106.492188 C 674.90625 1104.515625 671.46875 1103.847656 664.242188 1099.542969 C 641.175781 1085.773438 638.027344 1072.257812 647.0625 1025.886719 C 657.570312 971.980469 684.707031 909.621094 710.972656 879.015625 C 742.273438 842.542969 762.433594 834.078125 797.542969 842.667969 C 846.269531 854.582031 897.375 913.378906 908.496094 970.300781 C 913.792969 997.421875 914.136719 1002.171875 912.304688 1022.792969 C 909.359375 1055.871094 871.386719 1081.445312 801.34375 1097.507812 Z M 691.890625 811.402344 C 681.070312 830.789062 662.726562 831.820312 619.492188 815.492188 C 596.910156 806.96875 550.339844 783.664062 536.738281 774.089844 C 533.441406 771.761719 527.980469 776.089844 514.691406 791.566406 C 494.128906 815.507812 463.042969 834.496094 434.566406 840.507812 L 434.566406 840.5 C 384.792969 851 369.195312 833.570312 382.421875 782.21875 C 387.511719 762.441406 392.589844 751.550781 407.738281 727.953125 C 418.15625 711.714844 426.46875 696.734375 426.210938 694.660156 C 425.9375 692.585938 420.277344 685.226562 413.613281 678.316406 C 366.929688 629.867188 352.148438 569.121094 380.710938 543.140625 C 396.671875 528.621094 417.738281 524.796875 445.082031 531.453125 C 466.742188 536.71875 470.375 538.773438 497.785156 561.273438 C 527.089844 585.328125 527.238281 585.40625 532.429688 579.539062 C 545.902344 564.316406 597.597656 518.78125 615.921875 505.996094 C 643.121094 487.023438 659.144531 482.53125 672.675781 490.085938 C 686.933594 498.042969 688.828125 508.445312 680.351562 532.253906 C 671.902344 556.003906 649.546875 597.847656 625.507812 634.9375 C 615.546875 650.289062 607.742188 663.882812 608.148438 665.144531 C 608.558594 666.402344 624.640625 685.070312 643.898438 706.625 C 694.675781 763.46875 705.480469 787.0625 691.890625 811.402344 Z M 1397.242188 560.792969 C 1383.773438 512.667969 1354.695312 439.082031 1341.441406 419.550781 C 1338.261719 414.871094 1321.09375 406.613281 1283.03125 391.453125 C 1190.507812 354.589844 1128.015625 334.105469 1045.6875 313.609375 L 968.214844 294.359375 L 918.464844 302.894531 C 840.171875 316.332031 700.339844 348.804688 636.15625 368.449219 C 485.414062 414.589844 351.828125 472.878906 217.628906 551.054688 C 175.507812 575.578125 161.722656 585.265625 157.203125 593.488281 C 127.359375 647.738281 80.140625 811.53125 76.507812 873.402344 C 73.261719 928.699219 74.71875 941.03125 86.285156 956.425781 C 102.304688 977.753906 110.949219 983.773438 236.625 1061.136719 C 292.21875 1095.355469 300.832031 1107.988281 314.925781 1175.925781 C 336.464844 1279.800781 360.746094 1327.320312 409.597656 1361.175781 L 409.609375 1361.167969 C 424.113281 1371.226562 448.730469 1374.683594 470.558594 1369.730469 C 492.105469 1364.84375 502.003906 1359.71875 538.632812 1334.496094 C 570.960938 1312.238281 594.582031 1304.996094 617.621094 1310.277344 C 636.667969 1314.644531 649.445312 1325.902344 672.65625 1358.746094 C 694.640625 1389.851562 715.570312 1407.726562 735.84375 1412.6875 C 759.066406 1418.363281 775.78125 1416.605469 795.1875 1406.460938 C 816.046875 1395.550781 839.898438 1368.351562 856.777344 1336.214844 C 884.496094 1283.460938 917.523438 1259.882812 951.914062 1268.300781 C 971.710938 1273.148438 982.589844 1281.210938 1007.222656 1309.3125 C 1041.402344 1348.304688 1047.152344 1352.347656 1079.605469 1360.3125 L 1108.136719 1367.328125 L 1123.894531 1358.03125 C 1150.742188 1342.21875 1180.820312 1299.945312 1188.984375 1266.558594 C 1190.96875 1258.453125 1195.765625 1226.292969 1199.660156 1195.078125 C 1208.46875 1124.351562 1214.722656 1104.878906 1233.496094 1089.71875 C 1240.75 1083.863281 1273.546875 1065.660156 1306.394531 1049.277344 C 1361.175781 1021.9375 1367.449219 1017.910156 1382.257812 1000.496094 L 1398.40625 981.503906 L 1408.242188 939.480469 C 1434.09375 828.992188 1429.667969 676.679688 1397.242188 560.792969 " fill-opacity="1" fill-rule="nonzero"/></g><path fill="#ffffff" d="M 261.636719 438.125 C 331.644531 396.511719 405.925781 359.328125 483.578125 327.011719 C 522.214844 310.949219 636.6875 270.007812 664.785156 262.21875 C 677.003906 258.820312 686.546875 255.285156 685.984375 254.355469 C 684.375 251.726562 595.234375 252.191406 545.546875 255.121094 C 470.882812 259.496094 336.460938 280.757812 324.589844 290.054688 C 316.230469 296.601562 226.207031 445.21875 223.226562 457.390625 C 222.667969 459.683594 239.949219 451.019531 261.636719 438.125 " fill-opacity="1" fill-rule="nonzero"/><path fill="#ffffff" d="M 880.925781 194.339844 C 926.421875 200.789062 930.984375 200.78125 981.199219 194.261719 C 1010.136719 190.492188 1049.207031 186.3125 1068.027344 184.953125 C 1086.828125 183.601562 1102.46875 181.703125 1102.753906 180.734375 C 1105.113281 172.757812 982.175781 133.542969 900.054688 116.070312 C 782.886719 91.148438 684.726562 84.121094 583.445312 93.417969 C 537.367188 97.667969 463.300781 112.644531 452.675781 119.875 C 446.992188 123.753906 384.96875 199.300781 383.910156 203.636719 C 383.757812 204.265625 407.285156 200.488281 436.191406 195.261719 C 573.074219 170.515625 710.980469 170.234375 880.925781 194.339844 " fill-opacity="1" fill-rule="nonzero"/><path fill="#ffffff" d="M 1223.25 279.777344 C 1232.390625 283.074219 1241.207031 286.285156 1242.871094 286.929688 C 1244.515625 287.566406 1243.183594 284.453125 1239.910156 280.023438 C 1235.441406 273.992188 1231.402344 271.878906 1223.867188 271.660156 C 1206.324219 271.164062 1206.140625 273.597656 1223.25 279.777344 " fill-opacity="1" fill-rule="nonzero"/></svg>